<svg width="248" height="54" viewBox="0 0 248 54" fill="none" xmlns="http://www.w3.org/2000/svg">
<path d="M43.1201 41.75H13.2305V42.1H43.1201V41.75Z" fill="#909295"/>
<path d="M162.5 41.75H132.61V42.1H162.5V41.75Z" fill="#909295"/>
<path d="M66.2705 41.239C66.2705 40.989 66.2306 39.9291 66.1406 38.0391L65.6309 38.139L65.8105 41.369C65.6405 41.499 65.4407 41.579 65.2207 41.609C65.0007 41.639 64.76 41.6591 64.5 41.6591C64.1 41.6591 63.8304 41.559 63.6904 41.359L63.6406 38.649L63.1309 38.6591L63.1904 41.4091C62.9404 41.5791 62.4903 41.6591 61.8203 41.6591C61.4003 41.6591 61.0804 41.5891 60.8604 41.4391C60.6404 41.2891 60.52 41.0391 60.5 40.6691L60.3203 38.5291L59.8008 38.639L60.1807 43.5391C59.6407 44.0791 58.5507 44.3491 56.9307 44.3491C55.3807 44.3491 54.6006 43.8491 54.6006 42.8491C54.6006 42.3591 54.7505 41.199 55.0605 39.369L54.6104 39.2891C54.2704 41.3691 54.1006 42.5591 54.1006 42.8791C54.1006 43.6091 54.3303 44.1491 54.7803 44.4991C55.2303 44.8491 55.9509 45.0291 56.9209 45.0291C57.6309 45.0291 58.2701 44.959 58.8301 44.829C59.3901 44.699 59.8304 44.519 60.1504 44.299C60.4704 44.079 60.6309 43.8191 60.6309 43.5291C60.6309 43.1391 60.6008 42.559 60.5508 41.799C60.6808 41.999 60.8505 42.129 61.0605 42.209C61.2705 42.289 61.5308 42.329 61.8408 42.329C62.2008 42.329 62.5404 42.289 62.8604 42.209C63.1704 42.129 63.37 41.9891 63.46 41.7791C63.53 41.9491 63.6606 42.079 63.8506 42.179C64.0406 42.279 64.27 42.329 64.54 42.329C64.99 42.329 65.3902 42.249 65.7402 42.079C66.0902 41.909 66.2705 41.629 66.2705 41.239Z" fill="#909295"/>
<path d="M81.29 36.5898C80.83 36.5898 80.4607 36.7598 80.1807 37.0898C79.9007 37.4298 79.6903 37.8098 79.5703 38.2498C79.4503 38.6898 79.3906 39.0798 79.3906 39.4298C79.3906 39.5998 79.4104 39.7198 79.4404 39.7998C79.4704 39.8798 79.5208 39.9798 79.5908 40.0898C79.7208 40.2298 79.9102 40.3398 80.1602 40.3998C80.4102 40.4598 80.6802 40.4898 80.9502 40.4898C81.5702 40.4898 82.0903 40.4398 82.5303 40.3398C82.5303 40.7598 82.5107 41.0799 82.4707 41.2899C82.1507 41.4299 81.6906 41.5298 81.1006 41.5798C80.5106 41.6298 79.6708 41.6599 78.5908 41.6599H76.29H73.9902H71.6904H71.0703C70.6603 41.6599 70.3203 41.5799 70.0303 41.4099C69.7503 41.2399 69.5908 40.9899 69.5508 40.6599L69.3701 38.8199L68.8506 38.9199L69.1709 42.2299C69.0609 42.6999 68.7206 43.1899 68.1406 43.6999C67.5606 44.2099 66.8006 44.6699 65.8506 45.0699L66.1904 45.5898C66.8904 45.2998 67.4907 44.9599 68.0107 44.5699C68.5307 44.1799 68.93 43.7699 69.21 43.3499C69.49 42.9299 69.6309 42.5198 69.6309 42.1198C69.6309 41.9398 69.6301 41.7998 69.6201 41.6898C69.7601 41.8998 69.9502 42.0598 70.2002 42.1798C70.4502 42.2898 70.7405 42.3499 71.0605 42.3499H71.6807H73.9805H76.2803H78.5801C79.7301 42.3499 80.5605 42.3198 81.0605 42.2698C81.5605 42.2198 81.9805 42.1298 82.3105 42.0198C82.5105 41.9498 82.6607 41.8498 82.7607 41.7198C82.8607 41.5798 82.93 41.3698 82.96 41.0798C83 40.7898 83.0203 40.3499 83.0303 39.7599C83.0303 38.9599 82.9109 38.2398 82.6709 37.5898C82.4409 36.9198 81.98 36.5898 81.29 36.5898ZM80.9805 39.8799C80.4905 39.8799 80.1304 39.7998 79.9004 39.6498C79.9004 38.9498 80.0207 38.3599 80.2607 37.8799C80.5007 37.4099 80.82 37.1699 81.21 37.1699C82.09 37.1699 82.5303 38.0198 82.5303 39.7098C82.1803 39.8298 81.6605 39.8799 80.9805 39.8799Z" fill="#909295"/>
<path d="M80.75 34.8496L80.7402 35.5896H81.4805L81.4902 34.8496H80.75Z" fill="#909295"/>
<path d="M62.0703 36.7988L62.0605 37.5488H62.8105V36.7988H62.0703Z" fill="#909295"/>
<path d="M63.2002 36.7988L63.1904 37.5488H63.9307L63.9404 36.7988H63.2002Z" fill="#909295"/>
<path d="M94.0508 43.6094L94.04 44.3594H94.7803L94.79 43.6094H94.0508Z" fill="#909295"/>
<path d="M95.1807 43.6094L95.1709 44.3594H95.9102L95.9209 43.6094H95.1807Z" fill="#909295"/>
<path d="M62.6504 35.7285L62.6406 36.4685H63.3809L63.3906 35.7285H62.6504Z" fill="#909295"/>
<path d="M110.04 35.5898L110.03 36.3398H110.771L110.78 35.5999L110.04 35.5898Z" fill="#909295"/>
<path d="M121.021 37.8503C120.271 37.8503 119.441 38.2703 118.551 39.1003C117.661 39.9303 116.921 40.7203 116.341 41.4803C116.241 41.4603 116.13 41.4302 116 41.3802C115.88 41.3302 115.79 41.2702 115.73 41.2102L115.771 39.3802H115.261L115.271 41.3602C114.981 41.5002 114.73 41.5802 114.5 41.6102C114.28 41.6402 114.001 41.6602 113.671 41.6602C112.821 41.6602 112.241 41.5202 111.921 41.2402L111.73 38.5103L111.21 38.5602L111.44 41.2202C111.19 41.3902 110.92 41.5103 110.65 41.5703C110.37 41.6303 110.011 41.6703 109.561 41.6703H107.261H104.96H102.66H100.36H100.16C99.6302 41.6703 99.2204 41.5702 98.9004 41.3702C98.5904 41.1702 98.4307 40.8103 98.4307 40.2903L98.3408 33.7402L97.79 33.8402L97.9209 40.2903C97.9409 40.9803 98.13 41.4902 98.5 41.8402C98.87 42.1802 99.4302 42.3503 100.2 42.3503H100.37H102.671H104.971H107.271H109.57C110.09 42.3503 110.53 42.2903 110.91 42.1703C111.29 42.0503 111.541 41.8903 111.681 41.6703C111.911 42.1203 112.58 42.3402 113.69 42.3402C114.05 42.3402 114.41 42.2902 114.79 42.1802C115.17 42.0702 115.451 41.9302 115.641 41.7402C115.911 41.9802 116.35 42.1402 116.96 42.2202C117.57 42.3002 118.16 42.3402 118.71 42.3402C119.69 42.3402 120.541 42.2502 121.261 42.0802C121.981 41.9102 122.491 41.6902 122.801 41.4402C122.971 41.2802 123.051 40.9503 123.051 40.4503C123.041 38.7103 122.361 37.8503 121.021 37.8503ZM118.75 41.6602C117.96 41.6602 117.341 41.6202 116.891 41.5502C117.651 40.6302 118.41 39.8802 119.15 39.3002C119.89 38.7202 120.52 38.4402 121.03 38.4402C121.47 38.4402 121.801 38.5503 122.021 38.7603C122.241 38.9803 122.38 39.2602 122.44 39.6102C122.5 39.9602 122.53 40.4203 122.53 40.9803C121.6 41.4303 120.34 41.6602 118.75 41.6602Z" fill="#909295"/>
<path d="M95.79 38.0396L95.2705 38.1396L95.46 41.1496C94.93 41.4896 94.0806 41.6596 92.8906 41.6596H91.7803C91.3403 41.6596 91.01 41.5896 90.79 41.4396C90.57 41.2896 90.3902 41.0996 90.2402 40.8696C90.4702 40.7296 90.7307 40.4996 91.0107 40.1896C91.2907 39.8796 91.5305 39.5696 91.7305 39.2496C91.9205 38.9296 92.0205 38.6796 92.0205 38.4896V38.2696C92.0205 38.0196 91.8407 37.8496 91.4707 37.7496C91.1007 37.6496 90.6606 37.5996 90.1406 37.5996C89.0506 37.5996 88.1802 37.6596 87.4902 37.7596V38.3396L87.8203 38.7796C87.8803 38.8496 87.9407 38.9296 88.0107 39.0296C88.2407 39.3496 88.6309 39.9196 89.1709 40.7196C88.3609 41.0996 87.7405 41.5796 87.3105 42.1496C86.8905 42.7196 86.6709 43.3896 86.6709 44.1396C86.6709 44.7096 86.8204 45.2096 87.1104 45.6496C87.4104 46.0896 87.8208 46.4196 88.3408 46.6596C88.8708 46.8996 89.4704 47.0196 90.1504 47.0196C90.8504 47.0196 91.5307 46.8896 92.1807 46.6396L92.2402 45.9896C91.6102 46.2296 90.9106 46.3496 90.1406 46.3496C89.2406 46.3496 88.52 46.1296 87.96 45.6896C87.41 45.2496 87.1309 44.6296 87.1309 43.8296C87.1309 43.6596 87.1507 43.5096 87.1807 43.3796C87.2107 43.2496 87.2601 43.0996 87.3301 42.9396C87.5201 42.6096 87.8305 42.2796 88.2305 41.9396C88.6405 41.6096 89.1106 41.3196 89.6406 41.0896C89.8106 41.4296 90.0609 41.7196 90.3809 41.9596C90.7009 42.1996 91.1901 42.3196 91.8301 42.3196H92.8506C93.2806 42.3196 93.7106 42.2796 94.1406 42.2096C94.5706 42.1396 94.95 42.0296 95.29 41.8696C95.48 41.7796 95.6207 41.6596 95.7207 41.5096C95.8207 41.3596 95.8701 41.2096 95.8701 41.0496C95.9201 40.5696 95.87 39.5696 95.79 38.0396ZM89.75 40.6296L89.5205 40.2996C88.9705 39.5096 88.6107 38.9996 88.4307 38.7596C88.2607 38.5196 88.11 38.3696 88 38.2996C88.19 38.2696 88.4801 38.2396 88.8701 38.2196C89.2601 38.1996 89.6605 38.1896 90.0605 38.1896C90.9905 38.1896 91.5003 38.2696 91.5703 38.4296C91.5103 38.7496 91.2806 39.1396 90.8906 39.5796C90.5106 40.0296 90.12 40.3796 89.75 40.6296Z" fill="#909295"/>
<path d="M70.0831 9.06337L67.6504 11.4961L69.9838 13.8295L72.4165 11.3968L70.0831 9.06337Z" fill="#C49E5A"/>
<path d="M67.67 5.02626L65.2373 7.45898L67.5707 9.79241L70.0035 7.35968L67.67 5.02626Z" fill="#C49E5A"/>
<path d="M65.4308 9.3036L62.998 11.7363L65.3315 14.0697L67.7642 11.637L65.4308 9.3036Z" fill="#C49E5A"/>
<path d="M98.7211 9.0621L96.2891 11.4941L98.6225 13.8276L101.055 11.3955L98.7211 9.0621Z" fill="#C49E5A"/>
<path d="M94.0697 9.30234L91.6377 11.7344L93.9711 14.0678L96.4032 11.6358L94.0697 9.30234Z" fill="#C49E5A"/>
<path d="M148.33 12.8082C148.57 12.8082 148.82 12.7682 149.08 12.6782L148.011 14.1582L148.931 14.4282C149.261 13.9082 149.51 13.4182 149.69 12.9682C149.87 12.5182 149.971 12.1382 149.971 11.8282C149.971 11.3982 149.91 11.0182 149.79 10.6882C149.67 10.3582 149.5 10.1082 149.29 9.92819C149.08 9.74819 148.83 9.6582 148.54 9.6582C148.28 9.6582 148.051 9.7482 147.841 9.9382C147.631 10.1282 147.47 10.3882 147.36 10.7182C147.24 11.0482 147.19 11.4282 147.19 11.8582C147.19 12.1282 147.29 12.3482 147.5 12.5382C147.71 12.7182 147.98 12.8082 148.33 12.8082Z" fill="#C49E5A"/>
<path d="M162.19 19.2401C161.78 18.4601 161.151 17.7201 160.301 17.0101L159.4 16.2601L158.91 15.8501L156.12 13.5401V13.5501L154.82 15.2201L151.261 19.7901C150.321 21.0101 149.541 21.9101 148.931 22.5001C148.321 23.0801 147.72 23.4901 147.12 23.7101C146.52 23.9301 145.771 24.0501 144.881 24.0501H143.69H136.91H136.221C135.251 24.0501 134.48 23.9301 133.9 23.7001C133.32 23.4701 132.76 23.0501 132.23 22.4401C131.7 21.8401 131.01 20.8701 130.16 19.5501H134.28V15.9301C132.89 15.8901 131.55 15.8701 131 15.8101C130.45 15.7501 129.901 15.6501 129.351 15.4801C128.801 15.3201 127.85 14.9901 126.5 14.4901C125.1 13.9701 124.08 13.6001 123.44 13.3801C122.8 13.1601 122.3 13.0101 121.94 12.9401C121.58 12.8601 121.231 12.8301 120.881 12.8301C120.411 12.8301 119.971 12.9101 119.551 13.0801C119.131 13.2501 118.68 13.5201 118.2 13.9101C117.72 14.3001 116.17 15.8701 115.5 16.5701L117.79 18.5601C118.48 17.7701 119.04 17.2001 119.45 16.8501C119.87 16.5001 120.27 16.3301 120.66 16.3301C121.21 16.3301 121.971 16.4801 122.931 16.7801C123.891 17.0801 125.36 17.5801 127.33 18.2801L126.25 19.3301C125.03 20.5101 124.04 21.4001 123.28 22.0001C122.52 22.6001 121.621 23.1001 120.601 23.4701C119.571 23.8501 118.36 24.0301 116.96 24.0301H114.891H113.561H103.391H102.021C101.321 24.0301 100.67 23.9801 100.08 23.8701C99.8701 23.8301 99.6602 23.7901 99.4502 23.7301C98.7702 23.5601 98.3008 22.9301 98.3008 22.2301L98.2305 15.6601H95.2402L95.21 22.2401C95.21 22.9701 94.7005 23.6301 93.9805 23.7701C93.7305 23.8201 93.47 23.8601 93.21 23.8901C92.5 23.9801 91.6007 24.0201 90.5107 24.0201H90.4902H89.1309H82.3203L78.4209 24.0101C77.9709 24.0101 77.6104 23.6501 77.6104 23.2001V15.6601H74.1709L74.5 23.3601C74.52 23.8001 74.19 24.1801 73.75 24.2001C73.4 24.2201 73.0101 24.2301 72.5801 24.2301C71.9201 24.2301 71.2904 24.2001 70.6904 24.1401C70.3904 24.1101 70.1201 24.0701 69.8701 24.0301C69.4901 23.9601 69.2207 23.6301 69.2207 23.2401L69.1504 15.6501H66.1309V23.2201C66.1309 23.6101 65.85 23.9601 65.46 24.0201C65.16 24.0701 64.82 24.1101 64.46 24.1401C63.8 24.2001 63.1202 24.2301 62.4102 24.2301C61.6402 24.2301 60.9004 24.1901 60.1904 24.1201C59.7604 24.0701 59.3705 24.0201 59.0205 23.9501C58.6405 23.8701 58.3809 23.5401 58.3809 23.1601L58.3105 15.6601H55.29V23.2001C55.29 23.6501 54.9305 24.0101 54.4805 24.0101L48.9307 24.0201H34.6406H34C33.96 24.0201 33.9209 24.0401 33.8809 24.0401V24.0201H33.1201C31.9301 24.0201 31.0001 23.8501 30.3301 23.5001C29.6601 23.1601 29.1207 22.6201 28.7207 21.9001C28.3207 21.1801 27.8804 20.1001 27.4004 18.6601L26.2705 15.2401C21.3605 16.5401 18.1208 17.5001 16.5508 18.1401C14.9808 18.7701 14.0004 19.5801 13.6104 20.5601C13.2204 21.5401 13.0303 23.3901 13.0303 26.1101V32.3801H15.8604L15.8301 21.6901L17.6406 21.2501C17.7906 23.0301 18.0306 24.5701 18.3506 25.8901C18.6706 27.2101 19.1902 28.3001 19.9102 29.1801C20.6302 30.0501 21.6001 30.4901 22.8301 30.4901C23.5201 30.4901 24.23 30.3001 24.96 29.9101C25.69 29.5201 26.3605 28.9801 26.9805 28.2701C27.5905 27.5601 28.0802 26.7601 28.4502 25.8401C29.1702 26.4901 29.8901 26.9401 30.6201 27.2001C31.3301 27.4501 32.1501 27.5801 33.0801 27.5901V27.6001H34.6504H48.9404H50.3105H50.3301C51.7001 27.6001 52.9408 27.4801 54.0508 27.2501C55.1608 27.0201 56.0302 26.6901 56.6602 26.2701C57.3802 26.7301 58.2307 27.0801 59.2207 27.3201C60.2007 27.5601 61.22 27.6901 62.25 27.6901C63.25 27.6901 64.2104 27.5501 65.1504 27.2601C66.0904 26.9801 66.8707 26.5901 67.5107 26.1201C68.2007 26.6501 68.96 27.0501 69.79 27.3201C70.62 27.5901 71.4605 27.7201 72.3105 27.7201C73.0805 27.7201 73.8203 27.6101 74.5303 27.3801C75.2403 27.1601 75.8709 26.8301 76.4209 26.4001C77.0509 26.7601 77.7703 27.0401 78.5703 27.2601C79.3703 27.4801 80.1805 27.5901 80.9805 27.5901H82.3203H89.1309H90.4902H90.5107C91.8307 27.5901 93.0007 27.4701 94.0107 27.2201C95.0207 26.9801 95.9305 26.6001 96.7305 26.0901C97.3805 26.5301 98.2007 26.8901 99.1807 27.1601C100.171 27.4401 101.11 27.5801 102 27.5801H103.37H113.54H114.87H116.811C118.391 27.5801 119.79 27.3301 120.99 26.8301C122.19 26.3301 123.22 25.7001 124.08 24.9601C124.93 24.2201 125.951 23.2101 127.131 21.9301L128.07 20.9201C129.42 22.9401 130.461 24.3901 131.181 25.2501C131.901 26.1101 132.63 26.7201 133.36 27.0601C133.94 27.3301 134.671 27.5001 135.521 27.5501V27.5801H136.21H136.9H143.681H145.04H145.511C146.311 27.5801 147.051 27.4101 147.721 27.0701C148.391 26.7301 148.97 26.3301 149.45 25.8601C149.93 25.3901 150.53 24.7601 151.23 23.9701C151.54 25.4001 152.101 26.5901 152.921 27.5201C153.741 28.4501 154.76 28.9701 155.98 29.0701C156.08 29.0801 156.22 29.0801 156.4 29.0901C157.16 29.0901 157.931 28.9801 158.631 28.6801C159.931 28.1101 160.961 27.1701 161.721 25.8601C162.301 24.8401 162.651 23.6901 162.761 22.4001C162.781 22.1201 162.79 21.9101 162.79 21.7901C162.8 20.8901 162.6 20.0201 162.19 19.2401ZM25.3008 26.1901C25.2908 26.1901 25.2903 26.2001 25.2803 26.2001C24.6103 26.5401 24 26.7201 23.46 26.7201C22.86 26.7201 22.3301 26.4701 21.8701 25.9701C21.4101 25.4701 21.04 24.7601 20.75 23.8401C20.46 22.9201 20.2907 21.8501 20.2207 20.6201L24.8008 19.4001L26.3408 23.0401C26.8408 24.2101 26.4208 25.6101 25.3008 26.1901ZM159.91 23.6201L159.9 23.6401C159.51 24.2601 159.031 24.7501 158.471 25.1001C157.911 25.4501 157.31 25.6201 156.69 25.6201C155.89 25.6201 155.151 25.3301 154.471 24.7601C153.791 24.1901 153.3 23.4301 152.99 22.5001L156.45 18.2201L159.36 20.5101C160.31 21.2401 160.55 22.5901 159.91 23.6201Z" fill="#C49E5A"/>
<path d="M3.33008 11.0602H1.9707V15.3203H1.36035V11.0602H0V10.4902H3.33008V11.0602ZM8.82031 15.3203H8.2002V11.3302L6.55078 15.3203H6.38086L4.73047 11.3302V15.3203H4.12012V10.4902H5.06055L6.45996 14.0002L7.86035 10.4902H8.80078V15.3203H8.82031Z" fill="#C49E5A"/>
<path d="M247.36 2.7793H177.851V42.6693H247.36V2.7793Z" fill="#C5A25D"/>
<path d="M247.341 44.1387H177.851V44.9187V45.9887V53.8687H179.99V45.9887H181.811V53.8687H183.96V45.9887H185.771V53.8687H187.921V45.9887H189.74V53.8687H191.881V45.9887H193.7V53.8687H195.851V45.9887H197.66V53.8687H199.811V45.9887H201.631V53.8687H203.771V45.9887H205.591V53.8687H207.73V45.9887H209.551V53.8687H211.69V45.9887H213.511V53.8687H215.66V45.9887H217.48V53.8687H219.62V45.9887H221.44V53.8687H223.58V45.9887H225.4V53.8687H227.54V45.9887H229.36V53.8687H231.511V45.9887H233.32V53.8687H235.471V45.9887H237.29V53.8687H239.431V45.9887H241.25V53.8687H243.391V45.9887H245.21V53.8687H247.341V44.1387Z" fill="#C5A25D"/>
<path d="M189.12 2.7793C191.34 8.8793 196.73 10.8893 199.46 11.2593C199.93 12.6093 201.37 15.5593 205.37 17.7993C209.01 19.8293 210.84 21.8293 211.74 23.1493L212.54 24.3193L213.341 23.1493C214.231 21.8293 216.06 19.8393 219.71 17.7993C223.74 15.5493 225.16 12.5793 225.62 11.2393C227.67 10.8993 233.58 9.3593 235.96 2.7793H189.12Z" fill="#004A44"/>
<path d="M216.351 28.1483L216.33 28.1284C216.26 28.0484 216.19 27.9784 216.11 27.9084L212.521 24.3184L208.931 27.9084C208.851 27.9784 208.781 28.0484 208.721 28.1284L208.7 28.1483C208.38 28.5283 208.181 29.0183 208.181 29.5483C208.181 30.7483 209.151 31.7184 210.351 31.7184C210.461 31.7184 210.571 31.7084 210.681 31.6884C210.721 32.0884 210.88 32.4883 211.19 32.7983L212.53 34.1383L213.87 32.7983C214.18 32.4883 214.341 32.0984 214.381 31.6884C214.491 31.7084 214.59 31.7184 214.71 31.7184C215.91 31.7184 216.881 30.7483 216.881 29.5483C216.871 29.0083 216.671 28.5183 216.351 28.1483Z" fill="#336BAE"/>
<path d="M216.351 28.1483L216.33 28.1284C216.26 28.0484 216.19 27.9784 216.11 27.9084L212.521 24.3184L208.931 27.9084C208.851 27.9784 208.781 28.0484 208.721 28.1284L208.7 28.1483C208.38 28.5283 208.181 29.0183 208.181 29.5483C208.181 30.7483 209.151 31.7184 210.351 31.7184C210.461 31.7184 210.571 31.7084 210.681 31.6884C210.721 32.0884 210.88 32.4883 211.19 32.7983L212.53 34.1383L213.87 32.7983C214.18 32.4883 214.341 32.0984 214.381 31.6884C214.491 31.7084 214.59 31.7184 214.71 31.7184C215.91 31.7184 216.881 30.7483 216.881 29.5483C216.871 29.0083 216.671 28.5183 216.351 28.1483Z" fill="#004A44"/>
<path d="M189.12 2.78H235.94C236.12 2.28 236.281 1.75 236.421 1.19L236.71 0H188.341L188.631 1.19C188.761 1.75 188.93 2.27 189.12 2.78Z" fill="#3169B2"/>
</svg>
