<svg width="159" height="131" viewBox="0 0 159 131" fill="none" xmlns="http://www.w3.org/2000/svg">
<path d="M42.3328 125.031H13.3184V125.366H42.3328V125.031Z" fill="#909295"/>
<path d="M158.225 125.031H129.211V125.366H158.225V125.031Z" fill="#909295"/>
<path d="M64.8027 124.543C64.8027 124.304 64.7616 123.266 64.6796 121.436L64.188 121.531L64.3588 124.666C64.1949 124.789 64.0036 124.871 63.7918 124.898C63.5801 124.933 63.3409 124.946 63.0882 124.946C62.6988 124.946 62.4395 124.851 62.2961 124.653L62.2481 122.023L61.7565 122.037L61.8178 124.7C61.5788 124.864 61.1347 124.946 60.4858 124.946C60.076 124.946 59.7619 124.871 59.557 124.728C59.3453 124.584 59.2293 124.332 59.2088 123.983L59.0381 121.907L58.5325 122.016L58.9013 126.77C58.3754 127.296 57.3237 127.562 55.7391 127.562C54.2364 127.562 53.4782 127.077 53.4782 126.107C53.4782 125.629 53.6284 124.502 53.9221 122.726L53.4919 122.651C53.1641 124.666 53 125.827 53 126.135C53 126.845 53.2187 127.364 53.6627 127.706C54.0998 128.047 54.7965 128.218 55.7391 128.218C56.4289 128.218 57.0503 128.156 57.5967 128.027C58.1431 127.897 58.5736 127.726 58.881 127.508C59.1884 127.289 59.3452 127.043 59.3452 126.763C59.3452 126.387 59.318 125.827 59.2702 125.083C59.3931 125.274 59.5572 125.404 59.7621 125.486C59.967 125.561 60.2195 125.602 60.5132 125.602C60.8683 125.602 61.1963 125.561 61.5037 125.486C61.811 125.411 62.0023 125.267 62.0843 125.069C62.1526 125.233 62.2756 125.363 62.4668 125.459C62.6581 125.554 62.8766 125.602 63.1362 125.602C63.5733 125.602 63.9626 125.52 64.3041 125.356C64.632 125.192 64.8027 124.919 64.8027 124.543Z" fill="#909295"/>
<path d="M79.3908 120.02C78.9468 120.02 78.5848 120.183 78.3115 120.504C78.0383 120.832 77.8402 121.208 77.7172 121.631C77.6011 122.062 77.5398 122.444 77.5398 122.779C77.5398 122.943 77.5534 123.066 77.5875 123.141C77.6217 123.216 77.6696 123.312 77.7379 123.421C77.8609 123.564 78.0453 123.66 78.2912 123.715C78.5371 123.769 78.7967 123.803 79.0563 123.803C79.6573 123.803 80.1694 123.756 80.586 123.653C80.586 124.063 80.5657 124.37 80.5247 124.582C80.2105 124.719 79.7666 124.814 79.1997 124.869C78.6259 124.917 77.8129 124.944 76.7611 124.944H74.5276H72.2941H70.0607H69.453C69.0569 124.944 68.722 124.862 68.4488 124.698C68.1756 124.534 68.0184 124.288 67.9843 123.967L67.8135 122.178L67.3083 122.273L67.6157 125.484C67.5065 125.934 67.1783 126.413 66.6182 126.911C66.0582 127.41 65.3205 127.854 64.3984 128.236L64.7333 128.742C65.4095 128.462 65.9969 128.134 66.4955 127.751C66.9941 127.376 67.3832 126.979 67.6564 126.563C67.9296 126.153 68.0663 125.75 68.0663 125.368C68.0663 125.197 68.0595 125.053 68.0526 124.951C68.1824 125.156 68.3737 125.313 68.6196 125.429C68.8655 125.538 69.1455 125.593 69.4597 125.593H70.0677H72.3011H74.5346H76.7681C77.8882 125.593 78.6874 125.566 79.1723 125.518C79.6573 125.47 80.0603 125.388 80.3813 125.272C80.5793 125.204 80.7225 125.108 80.8182 124.978C80.9138 124.848 80.9753 124.637 81.0163 124.357C81.0504 124.07 81.0778 123.646 81.0846 123.079C81.0846 122.308 80.9687 121.604 80.7364 120.969C80.5111 120.341 80.0601 120.02 79.3908 120.02ZM79.0833 123.216C78.6052 123.216 78.2571 123.141 78.0317 122.991C78.0317 122.308 78.1479 121.734 78.3869 121.276C78.6191 120.819 78.9262 120.586 79.3087 120.586C80.1625 120.586 80.593 121.406 80.593 123.052C80.2515 123.161 79.7526 123.216 79.0833 123.216Z" fill="#909295"/>
<path d="M78.8641 118.33L78.8574 119.054H79.5745L79.5815 118.33H78.8641Z" fill="#909295"/>
<path d="M60.7336 120.223L60.7266 120.947H61.4506L61.4576 120.229L60.7336 120.223Z" fill="#909295"/>
<path d="M61.8254 120.223L61.8184 120.947H62.5424L62.5491 120.229L61.8254 120.223Z" fill="#909295"/>
<path d="M91.7742 126.836L91.7676 127.56H92.4846L92.4983 126.843L91.7742 126.836Z" fill="#909295"/>
<path d="M92.866 126.836L92.8594 127.56H93.5834L93.5901 126.843L92.866 126.836Z" fill="#909295"/>
<path d="M61.2938 119.186L61.2871 119.903H62.0108L62.0178 119.186H61.2938Z" fill="#909295"/>
<path d="M107.301 119.055L107.287 119.772L108.011 119.779L108.018 119.055H107.301Z" fill="#909295"/>
<path d="M117.954 121.245C117.224 121.245 116.425 121.648 115.557 122.454C114.69 123.26 113.979 124.031 113.412 124.762C113.317 124.749 113.201 124.714 113.085 124.667C112.968 124.619 112.88 124.564 112.818 124.503L112.852 122.727H112.361L112.374 124.653C112.094 124.783 111.848 124.865 111.63 124.899C111.411 124.933 111.145 124.947 110.824 124.947C109.997 124.947 109.431 124.81 109.123 124.537L108.939 121.88L108.433 121.928L108.659 124.509C108.413 124.673 108.153 124.79 107.887 124.851C107.621 124.912 107.265 124.947 106.828 124.947H104.595H102.361H100.128H97.8941H97.696C97.1838 124.947 96.7811 124.851 96.4737 124.653C96.1664 124.455 96.0158 124.106 96.0158 123.601L95.9271 117.242L95.3945 117.338L95.5173 123.594C95.5309 124.264 95.7224 124.762 96.0775 125.097C96.4327 125.432 96.9857 125.595 97.7234 125.595H97.8805H100.114H102.347H104.581H106.814C107.32 125.595 107.75 125.541 108.119 125.425C108.488 125.309 108.734 125.151 108.863 124.94C109.089 125.377 109.738 125.595 110.81 125.595C111.158 125.595 111.514 125.541 111.876 125.438C112.244 125.336 112.518 125.192 112.695 125.015C112.955 125.247 113.385 125.397 113.979 125.479C114.574 125.554 115.14 125.595 115.68 125.595C116.636 125.595 117.456 125.514 118.152 125.343C118.849 125.172 119.348 124.967 119.655 124.721C119.819 124.564 119.901 124.243 119.901 123.758C119.915 122.085 119.259 121.245 117.954 121.245ZM115.755 124.947C114.99 124.947 114.389 124.912 113.952 124.837C114.69 123.943 115.42 123.212 116.144 122.652C116.862 122.092 117.469 121.812 117.968 121.812C118.398 121.812 118.719 121.914 118.931 122.126C119.143 122.337 119.28 122.611 119.341 122.952C119.396 123.294 119.43 123.738 119.43 124.277C118.515 124.728 117.299 124.947 115.755 124.947Z" fill="#909295"/>
<path d="M93.4679 121.427L92.9626 121.523L93.1471 124.446C92.6348 124.774 91.8084 124.938 90.6541 124.938H89.5816C89.1513 124.938 88.8305 124.863 88.6188 124.72C88.407 124.576 88.2292 124.392 88.0858 124.173C88.3044 124.036 88.557 123.811 88.8302 123.511C89.1034 123.21 89.3356 122.903 89.5269 122.595C89.7181 122.288 89.814 122.042 89.814 121.858V121.646C89.814 121.407 89.6363 121.236 89.2811 121.14C88.9259 121.045 88.4957 120.99 87.9834 120.99C86.9248 120.99 86.0776 121.045 85.4151 121.147V121.707L85.7363 122.138C85.7909 122.206 85.8522 122.288 85.9137 122.377C86.1391 122.691 86.515 123.237 87.0409 124.016C86.2487 124.385 85.6475 124.849 85.2377 125.403C84.8279 125.956 84.623 126.605 84.623 127.335C84.623 127.889 84.7664 128.374 85.0533 128.797C85.3401 129.221 85.7431 129.548 86.2485 129.781C86.7608 130.013 87.3412 130.129 88.0038 130.129C88.6868 130.129 89.3426 130.006 89.9778 129.76L90.0391 129.132C89.4313 129.364 88.7483 129.48 88.0038 129.48C87.1295 129.48 86.4261 129.268 85.8934 128.838C85.3606 128.408 85.0943 127.807 85.0943 127.035C85.0943 126.871 85.1078 126.728 85.142 126.605C85.1761 126.482 85.2241 126.338 85.2924 126.174C85.4836 125.853 85.7704 125.532 86.1665 125.204C86.5627 124.877 87.0204 124.603 87.5395 124.385C87.7035 124.713 87.9424 124.993 88.2566 125.232C88.5708 125.464 89.0421 125.58 89.6636 125.58H90.6541C91.0708 125.58 91.494 125.546 91.9038 125.478C92.3204 125.409 92.6895 125.3 93.0173 125.15C93.2017 125.061 93.3383 124.945 93.4339 124.795C93.5363 124.651 93.5843 124.501 93.5843 124.344C93.5911 123.886 93.5499 122.91 93.4679 121.427ZM87.6009 123.948L87.3755 123.627C86.8427 122.862 86.4875 122.363 86.3236 122.131C86.1528 121.899 86.0162 121.755 85.9137 121.687C86.0981 121.653 86.3783 121.625 86.7608 121.605C87.1433 121.584 87.5257 121.571 87.9151 121.571C88.8235 121.571 89.3083 121.646 89.3835 121.803C89.3288 122.117 89.1036 122.486 88.7211 122.923C88.3387 123.36 87.9629 123.702 87.6009 123.948Z" fill="#909295"/>
<path d="M68.5414 93.2633L66.1797 95.625L68.4496 97.8949L70.8113 95.5332L68.5414 93.2633Z" fill="#C49E5A"/>
<path d="M66.1938 89.3433L63.832 91.7051L66.102 93.975L68.4637 91.6133L66.1938 89.3433Z" fill="#C49E5A"/>
<path d="M63.8891 93.3844L61.5273 95.7461L63.7973 98.016L66.159 95.6543L63.8891 93.3844Z" fill="#C49E5A"/>
<path d="M96.3364 93.2633L93.9746 95.625L96.2445 97.8949L98.6063 95.5332L96.3364 93.2633Z" fill="#C49E5A"/>
<path d="M91.6879 93.3844L89.3262 95.7461L91.5961 98.016L93.9578 95.6543L91.6879 93.3844Z" fill="#C49E5A"/>
<path d="M144.467 96.9378C144.699 96.9378 144.945 96.8969 145.198 96.8081L144.16 98.2492L145.054 98.5156C145.369 98.0102 145.621 97.5389 145.799 97.1018C145.976 96.6646 146.065 96.2958 146.065 95.9884C146.065 95.5718 146.004 95.203 145.887 94.882C145.771 94.5609 145.608 94.3151 145.396 94.1443C145.184 93.9736 144.945 93.8848 144.672 93.8848C144.419 93.8848 144.194 93.9736 143.996 94.158C143.797 94.3356 143.64 94.5883 143.524 94.9161C143.408 95.2371 143.354 95.606 143.354 96.0226C143.354 96.2822 143.456 96.5007 143.661 96.6783C143.866 96.8559 144.132 96.9378 144.467 96.9378Z" fill="#C49E5A"/>
<path d="M157.925 103.18C157.529 102.422 156.921 101.698 156.088 101.022L155.214 100.298L154.735 99.9018L152.024 97.6615L152.017 97.6683L150.753 99.2939L147.304 103.727C146.389 104.908 145.631 105.789 145.044 106.356C144.449 106.923 143.862 107.313 143.281 107.531C142.701 107.75 141.977 107.859 141.109 107.859H139.969H133.384H132.715C131.779 107.859 131.028 107.743 130.461 107.517C129.894 107.292 129.355 106.882 128.842 106.295C128.33 105.707 127.661 104.772 126.828 103.494H130.823V99.9769C129.471 99.9359 128.173 99.9155 127.64 99.8608C127.108 99.8062 126.575 99.7037 126.042 99.5398C125.509 99.3827 124.587 99.0617 123.276 98.5768C121.917 98.0713 120.926 97.7161 120.305 97.5044C119.683 97.2927 119.198 97.1492 118.85 97.0741C118.501 96.999 118.16 96.9648 117.819 96.9648C117.368 96.9648 116.937 97.0468 116.534 97.2107C116.131 97.3746 115.694 97.641 115.223 98.0167C114.752 98.3923 113.256 99.9223 112.607 100.598L114.834 102.525C115.503 101.753 116.043 101.206 116.446 100.865C116.849 100.523 117.238 100.359 117.614 100.359C118.146 100.359 118.884 100.503 119.82 100.797C120.755 101.09 122.183 101.575 124.095 102.251L123.044 103.269C121.862 104.417 120.899 105.277 120.161 105.865C119.423 106.452 118.556 106.93 117.559 107.292C116.562 107.654 115.387 107.838 114.021 107.838H112.006H110.722H100.852H99.5206C98.8376 107.838 98.216 107.784 97.6423 107.681C97.4374 107.647 97.2392 107.599 97.0343 107.552C96.3718 107.388 95.9209 106.773 95.9141 106.09L95.8527 99.7174H92.9499L92.9226 106.104C92.9226 106.814 92.4308 107.456 91.7273 107.593C91.4814 107.64 91.2355 107.681 90.9759 107.709C90.2861 107.791 89.4118 107.832 88.3599 107.832H88.3462H87.0282H80.4165L76.6326 107.818C76.2023 107.818 75.8472 107.463 75.8472 107.032V99.7106H72.5005L72.8213 107.19C72.8418 107.613 72.5207 107.982 72.0973 108.009C71.7626 108.03 71.3803 108.043 70.9637 108.043C70.3217 108.043 69.7138 108.016 69.1264 107.955C68.8327 107.927 68.5662 107.886 68.334 107.845C67.9652 107.777 67.7057 107.456 67.7057 107.08L67.6373 99.7106H64.7072V107.053C64.7072 107.435 64.4338 107.77 64.0582 107.832C63.7645 107.879 63.4435 107.92 63.0883 107.955C62.4531 108.016 61.7908 108.043 61.101 108.043C60.3497 108.043 59.6322 108.009 58.9492 107.934C58.5326 107.886 58.1571 107.832 57.8156 107.763C57.4536 107.688 57.1941 107.367 57.1873 106.998L57.1189 99.7174H54.1888V107.039C54.1888 107.476 53.8405 107.825 53.4034 107.825L48.021 107.838H34.1492H33.5206C33.4796 107.838 33.4455 107.859 33.4045 107.859V107.838H32.6668C31.5125 107.838 30.6111 107.675 29.9554 107.34C29.2997 107.005 28.7806 106.486 28.3913 105.789C28.002 105.093 27.5784 104.041 27.114 102.641L26.0211 99.3144C21.2536 100.578 18.1119 101.514 16.5819 102.128C15.0588 102.743 14.1024 103.529 13.7268 104.478C13.3511 105.427 13.1602 107.224 13.1602 109.86V115.946H15.9126L15.8785 105.564L17.6338 105.134C17.784 106.855 18.0094 108.358 18.3168 109.635C18.6241 110.912 19.1294 111.978 19.8329 112.824C20.5296 113.671 21.4792 114.095 22.6677 114.095C23.337 114.095 24.0267 113.91 24.7371 113.535C25.4474 113.159 26.0962 112.633 26.6904 111.95C27.2846 111.267 27.763 110.482 28.1181 109.594C28.8148 110.222 29.5182 110.666 30.2285 110.919C30.9184 111.165 31.7175 111.288 32.6191 111.294V111.301H34.1422H48.0143H49.3463H49.36C50.6919 111.301 51.8937 111.185 52.9728 110.96C54.0452 110.734 54.8922 110.42 55.5001 110.01C56.1968 110.454 57.0302 110.796 57.9864 111.035C58.9426 111.274 59.9262 111.39 60.9302 111.39C61.8933 111.39 62.8356 111.254 63.744 110.973C64.6524 110.7 65.4176 110.325 66.0392 109.867C66.7085 110.379 67.446 110.769 68.252 111.028C69.0579 111.288 69.8708 111.417 70.6972 111.417C71.4485 111.417 72.1658 111.308 72.8557 111.09C73.5455 110.871 74.1602 110.557 74.6929 110.14C75.3076 110.489 75.9973 110.762 76.776 110.973C77.5546 111.185 78.3332 111.294 79.1118 111.294H80.4165H87.0282H88.3462H88.3599C89.644 111.294 90.7711 111.178 91.7546 110.939C92.7382 110.7 93.6194 110.338 94.398 109.847C95.0264 110.27 95.8253 110.618 96.7815 110.892C97.7378 111.165 98.6532 111.301 99.5206 111.301H100.852H110.722H112.006H113.884C115.421 111.301 116.774 111.055 117.948 110.571C119.116 110.086 120.113 109.478 120.947 108.761C121.773 108.043 122.763 107.06 123.904 105.817L124.82 104.84C126.131 106.8 127.135 108.2 127.838 109.041C128.542 109.881 129.245 110.468 129.956 110.803C130.523 111.069 131.226 111.226 132.059 111.281V111.308H132.722H133.391H139.976H141.294H141.751C142.53 111.308 143.247 111.144 143.896 110.81C144.545 110.482 145.105 110.086 145.576 109.635C146.047 109.184 146.621 108.569 147.297 107.797C147.591 109.191 148.144 110.338 148.937 111.247C149.736 112.155 150.726 112.661 151.908 112.756C152.003 112.763 152.14 112.77 152.318 112.77C153.055 112.777 153.807 112.661 154.483 112.367C155.746 111.814 156.744 110.905 157.481 109.635C158.048 108.651 158.39 107.531 158.492 106.274C158.513 106.001 158.519 105.803 158.519 105.68C158.519 104.772 158.321 103.938 157.925 103.18ZM25.0376 109.928C25.0307 109.928 25.024 109.935 25.0172 109.935C24.3615 110.27 23.7741 110.441 23.255 110.441C22.6744 110.441 22.162 110.195 21.7112 109.71C21.2604 109.225 20.8985 108.535 20.6253 107.64C20.3521 106.752 20.1747 105.707 20.1064 104.519L24.5526 103.337L26.0484 106.869C26.5333 107.996 26.1304 109.362 25.0376 109.928ZM155.712 107.429L155.699 107.449C155.316 108.057 154.859 108.528 154.305 108.863C153.752 109.198 153.185 109.368 152.584 109.368C151.805 109.368 151.081 109.088 150.426 108.535C149.763 107.975 149.285 107.244 148.991 106.336L152.352 102.176L155.179 104.403C156.101 105.12 156.334 106.425 155.712 107.429Z" fill="#C49E5A"/>
<path d="M3.71307 95.2408H2.39473V99.373H1.80043V95.2408H0.482422V94.6875H3.71974V95.2408H3.71307ZM9.03379 99.373H8.43949V95.5003L6.84134 99.373H6.67058L5.0721 95.5003V99.373H4.4778V94.6875H5.39326L6.75229 98.0958L8.11832 94.6875H9.03379V99.373Z" fill="#C49E5A"/>
<path d="M138.696 4.20703H33.334V64.6676H138.696V4.20703Z" fill="#C5A25D"/>
<path d="M138.669 66.9004H33.334V68.082V69.7076V81.6467H36.5853V69.7076H39.3447V81.6467H42.5957V69.7076H45.3485V81.6467H48.5994V69.7076H51.3589V81.6467H54.6032V69.7076H57.3626V81.6467H60.6139V69.7076H63.3663V81.6467H66.6173V69.7076H69.3767V81.6467H72.6281V69.7076H75.3805V81.6467H78.6318V69.7076H81.3912V81.6467H84.6422V69.7076H87.3949V81.6467H90.6459V69.7076H93.4053V81.6467H96.6497V69.7076H99.4091V81.6467H102.66V69.7076H105.413V81.6467H108.664V69.7076H111.423V81.6467H114.675V69.7076H117.427V81.6467H120.678V69.7076H123.438V81.6467H126.689V69.7076H129.441V81.6467H132.692V69.7076H135.452V81.6467H138.682L138.669 66.9004Z" fill="#C5A25D"/>
<path d="M50.416 4.20703C53.7833 13.4482 61.9521 16.4945 66.0844 17.0682C66.7947 19.1241 68.9734 23.591 75.0386 26.9788C80.5642 30.066 83.3375 33.0849 84.6899 35.0793L85.8988 36.8552L87.1074 35.0793C88.4598 33.0849 91.2331 30.0592 96.7587 26.9788C102.865 23.5705 105.03 19.0558 105.727 17.0341C108.827 16.5218 117.795 14.1791 121.395 4.21387H50.416V4.20703Z" fill="#004A44"/>
<path d="M91.6994 42.6601L91.6791 42.6328C91.5766 42.5167 91.4672 42.4074 91.3442 42.305L85.9008 36.8613L80.45 42.3118C80.3339 42.4142 80.2246 42.5235 80.1222 42.6396L80.0951 42.667C79.6102 43.2407 79.3164 43.9852 79.3164 44.798C79.3164 46.6148 80.7916 48.0901 82.6084 48.0901C82.7792 48.0901 82.9431 48.0764 83.107 48.0491C83.1617 48.6638 83.4075 49.2581 83.8787 49.7293L85.9074 51.7579L87.9361 49.7293C88.4074 49.2581 88.6532 48.6638 88.7079 48.0491C88.8718 48.0764 89.0357 48.0901 89.2065 48.0901C91.0233 48.0901 92.4985 46.6148 92.4985 44.798C92.478 43.9715 92.1843 43.2339 91.6994 42.6601Z" fill="#336BAE"/>
<path d="M91.6994 42.6601L91.6791 42.6328C91.5766 42.5167 91.4672 42.4074 91.3442 42.305L85.9008 36.8613L80.45 42.3118C80.3339 42.4142 80.2246 42.5235 80.1222 42.6396L80.0951 42.667C79.6102 43.2407 79.3164 43.9852 79.3164 44.798C79.3164 46.6148 80.7916 48.0901 82.6084 48.0901C82.7792 48.0901 82.9431 48.0764 83.107 48.0491C83.1617 48.6638 83.4075 49.2581 83.8787 49.7293L85.9074 51.7579L87.9361 49.7293C88.4074 49.2581 88.6532 48.6638 88.7079 48.0491C88.8718 48.0764 89.0357 48.0901 89.2065 48.0901C91.0233 48.0901 92.4985 46.6148 92.4985 44.798C92.478 43.9715 92.1843 43.2339 91.6994 42.6601Z" fill="#004A44"/>
<path d="M50.4199 4.20736H121.399C121.672 3.44921 121.918 2.65009 122.13 1.80315L122.567 0H49.2383L49.6755 1.80315C49.8804 2.65009 50.1398 3.44238 50.4199 4.20736Z" fill="#3169B2"/>
</svg>