<svg width="42" height="33" viewBox="0 0 42 33" fill="none" xmlns="http://www.w3.org/2000/svg">
<g id="Group 1000003534">
<path id="Vector" d="M41.4092 1.65625H0V25.42H41.4092V1.65625Z" fill="#C5A25D"/>
<path id="Vector_2" d="M41.3975 26.2969H0V26.7616V27.399V32.0933H1.27466V27.399H2.35907V32.0933H3.63955V27.399H4.71815V32.0933H5.9992V27.399H7.08304V32.0933H8.35828V27.399H9.44211V32.0933H10.7232V27.399H11.8012V32.0933H13.0822V27.399H14.1667V32.0933H15.4413V27.399H16.5257V32.0933H17.8004V27.399H18.8848V32.0933H20.1595V27.399H21.2439V32.0933H22.5244V27.399H23.6088V32.0933H24.8834V27.399H25.9678V32.0933H27.2425V27.399H28.3269V32.0933H29.6016V27.399H30.686V32.0933H31.967V27.399H33.0451V32.0933H34.3261V27.399H35.41V32.0933H36.6852V27.399H37.769V32.0933H39.0443V27.399H40.1281V32.0933H41.3975V26.2969Z" fill="#C5A25D"/>
<path id="Vector_3" d="M6.71484 1.65625C8.03737 5.29021 11.2483 6.48764 12.8746 6.70806C13.1546 7.5123 14.0126 9.26969 16.3955 10.6041C18.5639 11.8135 19.6542 13.0049 20.1904 13.7913L20.6668 14.4883L21.1439 13.7913C21.6741 13.0049 22.7638 11.8194 24.9382 10.6041C27.339 9.26373 28.185 7.49441 28.459 6.69613C29.6803 6.49358 33.201 5.57616 34.6188 1.65625H6.71484Z" fill="#004A44"/>
<path id="Vector_4" d="M22.9354 16.7699L22.9232 16.758C22.8815 16.7104 22.84 16.6687 22.7923 16.627L20.6537 14.4883L18.5152 16.627C18.4675 16.6687 18.4258 16.7104 18.3901 16.758L18.3779 16.7699C18.1872 16.9963 18.0684 17.2882 18.0684 17.6039C18.0684 18.3188 18.6462 18.8967 19.3611 18.8967C19.4266 18.8967 19.4922 18.8907 19.5577 18.8788C19.5815 19.1171 19.6767 19.3554 19.8614 19.5401L20.6596 20.3384L21.4577 19.5401C21.6424 19.3554 21.7382 19.1231 21.762 18.8788C21.8275 18.8907 21.8866 18.8967 21.9581 18.8967C22.6729 18.8967 23.2513 18.3188 23.2513 17.6039C23.2454 17.2823 23.1261 16.9903 22.9354 16.7699Z" fill="#336BAE"/>
<path id="Vector_5" d="M22.9354 16.7699L22.9232 16.758C22.8815 16.7104 22.84 16.6687 22.7923 16.627L20.6537 14.4883L18.5152 16.627C18.4675 16.6687 18.4258 16.7104 18.3901 16.758L18.3779 16.7699C18.1872 16.9963 18.0684 17.2882 18.0684 17.6039C18.0684 18.3188 18.6462 18.8967 19.3611 18.8967C19.4266 18.8967 19.4922 18.8907 19.5577 18.8788C19.5815 19.1171 19.6767 19.3554 19.8614 19.5401L20.6596 20.3384L21.4577 19.5401C21.6424 19.3554 21.7382 19.1231 21.762 18.8788C21.8275 18.8907 21.8866 18.8967 21.9581 18.8967C22.6729 18.8967 23.2513 18.3188 23.2513 17.6039C23.2454 17.2823 23.1261 16.9903 22.9354 16.7699Z" fill="#004A44"/>
<path id="Vector_6" d="M6.71425 1.65613H34.6066C34.7138 1.35827 34.8094 1.04253 34.8928 0.708922L35.065 0H6.25L6.42279 0.708922C6.50023 1.04253 6.60106 1.35231 6.71425 1.65613Z" fill="#3169B2"/>
</g>
</svg>
